<svg width="117" height="24" viewBox="0 0 117 24" fill="none" xmlns="http://www.w3.org/2000/svg">
<path d="M7.86133 15.6543C7.89779 15.6816 8.0026 15.6953 8.17578 15.6953C8.34896 15.6953 8.48112 15.6361 8.57227 15.5176C8.66341 15.3991 8.70898 15.1895 8.70898 14.8887V14.6289C8.70898 14.2917 8.66797 14.0501 8.58594 13.9043C8.51302 13.7585 8.38542 13.6855 8.20312 13.6855C8.02995 13.6855 7.91146 13.7038 7.84766 13.7402C7.85677 13.7858 7.86133 13.8633 7.86133 13.9727V15.6543ZM7.86133 10.5C7.89779 10.5273 8.0026 10.541 8.17578 10.541C8.34896 10.541 8.48112 10.4727 8.57227 10.3359C8.66341 10.1992 8.70898 9.97591 8.70898 9.66602V9.58398C8.70898 9.25586 8.66797 9.02344 8.58594 8.88672C8.51302 8.74089 8.38542 8.66797 8.20312 8.66797C8.02995 8.66797 7.91146 8.6862 7.84766 8.72266C7.85677 8.76823 7.86133 8.8457 7.86133 8.95508V10.5ZM0.4375 5.23633C0.4375 5.02669 0.610677 4.78971 0.957031 4.52539C1.6862 3.9694 2.97135 3.53646 4.8125 3.22656C5.76953 3.07161 6.82227 2.99414 7.9707 2.99414C10.7051 2.99414 12.7741 3.52279 14.1777 4.58008C15.4082 5.50977 16.0234 6.73112 16.0234 8.24414C16.0234 8.79102 15.9277 9.32878 15.7363 9.85742C15.5449 10.377 15.2715 10.7689 14.916 11.0332C14.4329 10.7871 13.9681 10.6641 13.5215 10.6641C13.3118 10.6641 13.1523 10.7051 13.043 10.7871C12.9336 10.8691 12.8789 11.0195 12.8789 11.2383C14.2188 11.293 15.2624 11.776 16.0098 12.6875C16.6751 13.5169 17.0078 14.5469 17.0078 15.7773C17.0078 17.6823 16.2103 19.0677 14.6152 19.9336C13.1204 20.7448 10.8691 21.1504 7.86133 21.1504C5.75586 21.1504 4.21094 21.0866 3.22656 20.959C2.24219 20.8223 1.53125 20.5078 1.09375 20.0156C0.65625 19.5234 0.4375 18.776 0.4375 17.7734V5.23633ZM23.8574 13.3848C23.8574 13.9134 23.8802 14.2689 23.9258 14.4512C23.9805 14.7428 24.1309 14.8887 24.377 14.8887H24.5C24.5273 14.8887 24.5684 14.8796 24.623 14.8613C24.5957 14.6152 24.582 14.2598 24.582 13.7949C24.582 13.3301 24.6048 12.569 24.6504 11.5117C24.696 10.4544 24.7188 8.91406 24.7188 6.89062C25.6211 6.27083 26.6556 5.96094 27.8223 5.96094C28.7337 5.96094 29.4857 6.13867 30.0781 6.49414C30.6797 6.84961 31.0944 7.35547 31.3223 8.01172C31.3223 8.32161 31.2904 8.95508 31.2266 9.91211C31.0352 12.1999 30.7572 13.9316 30.3926 15.1074C30.4928 15.1621 30.5977 15.1895 30.707 15.1895C30.8255 15.1895 30.9167 15.153 30.9805 15.0801C31.2448 14.7793 31.4954 13.6947 31.7324 11.8262C31.9238 10.0033 32.0423 8.60417 32.0879 7.62891C32.097 7.28255 32.1107 7.01823 32.1289 6.83594C32.4753 6.57161 32.9355 6.36198 33.5098 6.20703C34.0931 6.04297 34.6992 5.96094 35.3281 5.96094C36.3945 5.96094 37.265 6.25716 37.9395 6.84961C38.6139 7.43294 38.9512 8.2168 38.9512 9.20117C38.9512 9.93034 38.8053 10.9284 38.5137 12.1953C38.222 13.4622 37.8255 14.8112 37.3242 16.2422C36.8229 17.6641 36.4173 18.6576 36.1074 19.2227C35.6699 20.0065 35.1458 20.5397 34.5352 20.8223C33.9336 21.1048 32.9993 21.2461 31.7324 21.2461C31.3496 21.2461 30.8529 21.2051 30.2422 21.123C29.6315 21.041 29.2122 20.9544 28.9844 20.8633C28.793 20.5534 28.5651 20.0977 28.3008 19.4961C28.0456 18.8945 27.8633 18.4297 27.7539 18.1016C27.4076 18.1562 27.2344 18.3066 27.2344 18.5527C27.2344 18.6257 27.2936 18.8307 27.4121 19.168C27.5306 19.4961 27.6172 19.7194 27.6719 19.8379C27.6445 19.8926 27.5762 20.0384 27.4668 20.2754C27.3574 20.5033 27.2389 20.7038 27.1113 20.877C26.4095 21.123 25.3932 21.2461 24.0625 21.2461C22.7409 21.2461 21.6107 21.0592 20.6719 20.6855C19.9427 19.6829 19.3092 18.4844 18.7715 17.0898C18.2428 15.6953 17.7962 13.9089 17.4316 11.7305C16.8301 10.9466 16.5293 10.0033 16.5293 8.90039C16.5293 7.79753 16.8027 6.84049 17.3496 6.0293H20.6582C21.9525 6.0293 22.8548 6.33464 23.3652 6.94531C23.7572 7.41927 23.9531 8.1849 23.9531 9.24219L23.8574 13.3848ZM46.5391 8.69531V14.1094C46.5391 15.4674 46.8672 16.3516 47.5234 16.7617C47.5326 16.8073 47.5371 16.8939 47.5371 17.0215V17.2676C47.5371 18.6074 47.1725 19.6146 46.4434 20.2891C45.7689 20.9271 44.8665 21.2461 43.7363 21.2461C42.6152 21.2461 41.6901 20.9271 40.9609 20.2891C40.0404 19.4779 39.5801 18.293 39.5801 16.7344V7.84766C39.7441 7.72917 39.9219 7.63346 40.1133 7.56055C40.3047 7.48763 40.5052 7.39648 40.7148 7.28711C40.3229 7.08659 39.9674 6.74023 39.6484 6.24805C39.3294 5.74674 39.1699 5.16341 39.1699 4.49805C39.1699 3.34961 39.5482 2.41081 40.3047 1.68164C41.0612 0.952474 41.9863 0.587891 43.0801 0.587891C44.1829 0.587891 45.1035 0.961589 45.8418 1.70898C46.5892 2.44727 46.9629 3.37695 46.9629 4.49805C46.9629 5.40039 46.6803 6.19336 46.1152 6.87695C45.5501 7.55143 44.862 7.97526 44.0508 8.14844C44.0508 8.49479 44.1829 8.66797 44.4473 8.66797C44.9121 8.66797 45.3861 8.48568 45.8691 8.12109C46.2337 8.40365 46.457 8.59505 46.5391 8.69531ZM62.6172 14.2324C62.6172 14.8887 62.6901 15.4173 62.8359 15.8184C62.9818 16.2194 63.237 16.5339 63.6016 16.7617C63.6107 16.8073 63.6152 16.8939 63.6152 17.0215V17.2676C63.6152 18.5254 63.2507 19.5052 62.5215 20.207C61.8014 20.8997 60.8672 21.2461 59.7188 21.2461C58.5794 21.2461 57.6543 20.9225 56.9434 20.2754C56.1139 19.5371 55.6992 18.416 55.6992 16.9121C55.6992 16.2741 55.7266 15.7135 55.7812 15.2305C55.8451 14.7383 55.8861 14.3874 55.9043 14.1777C55.9316 13.9681 55.959 13.7721 55.9863 13.5898C56.0137 13.4076 56.0273 13.1387 56.0273 12.7832C56.0273 12.4277 55.9772 12.1725 55.877 12.0176C55.7858 11.8626 55.6536 11.7852 55.4805 11.7852C55.3164 11.7852 55.1706 11.8216 55.043 11.8945L55.2207 14.123C55.0566 15.0436 54.9746 16.0189 54.9746 17.0488C54.9746 18.0788 55.207 19.0176 55.6719 19.8652C54.7786 20.7858 53.5254 21.2461 51.9121 21.2461C50.9915 21.2461 50.194 21.0046 49.5195 20.5215C48.7357 19.9746 48.3438 19.25 48.3438 18.3477V11.7305C47.806 10.974 47.5371 10.0443 47.5371 8.94141C47.5371 7.82943 47.806 6.86784 48.3438 6.05664H50.7773C51.4245 6.05664 51.9759 6.29818 52.4316 6.78125C52.0306 7.15495 51.8301 7.46484 51.8301 7.71094C51.8301 7.99349 51.9896 8.13477 52.3086 8.13477C52.7096 7.44206 53.3203 6.86784 54.1406 6.41211C54.9701 5.95638 55.9089 5.72852 56.957 5.72852C58.5339 5.72852 59.8145 6.11589 60.7988 6.89062C62.0384 7.86589 62.6582 9.37891 62.6582 11.4297L62.6172 14.2324ZM71.1484 13.3848V15.7773C71.2122 15.8411 71.3171 15.873 71.4629 15.873C71.6087 15.873 71.7135 15.8229 71.7773 15.7227C71.8411 15.6224 71.873 15.4492 71.873 15.2031V13.248C71.873 12.373 71.8366 11.7943 71.7637 11.5117C71.6908 11.2201 71.554 11.0742 71.3535 11.0742C71.2259 11.0742 71.1165 11.1198 71.0254 11.2109C71.1074 12.1133 71.1484 12.8379 71.1484 13.3848ZM66.0352 19.4414C64.5404 18.0013 63.793 16.0508 63.793 13.5898C63.793 11.1198 64.4948 9.17383 65.8984 7.75195C67.3112 6.32096 69.1615 5.60547 71.4492 5.60547C73.737 5.60547 75.5872 6.34831 77 7.83398C78.4036 9.31966 79.1055 11.2565 79.1055 13.6445C79.1055 16.0234 78.4264 17.9147 77.0684 19.3184C75.7194 20.722 73.8828 21.4238 71.5586 21.4238C69.2344 21.4238 67.3932 20.763 66.0352 19.4414ZM96.5918 6.50781V20.0977C95.571 20.8633 94.263 21.2461 92.668 21.2461C91.4375 21.2461 90.4622 20.9954 89.7422 20.4941C88.9857 19.9837 88.6074 19.2454 88.6074 18.2793V15.5723H89.5781C89.9518 15.5723 90.1842 15.5267 90.2754 15.4355C90.3757 15.3353 90.4258 15.1758 90.4258 14.957H86.1328C86.1328 15.1758 86.1738 15.3353 86.2559 15.4355C86.3379 15.5267 86.5339 15.5723 86.8438 15.5723H87.8828V20.0977C87.181 20.5534 86.5156 20.8587 85.8867 21.0137C85.2578 21.1686 84.6152 21.2461 83.959 21.2461C82.7285 21.2461 81.7533 20.9954 81.0332 20.4941C80.2767 19.9837 79.8984 19.2454 79.8984 18.2793V4.67578C80.3724 4.17448 80.9557 3.79167 81.6484 3.52734C82.3503 3.25391 83.0794 3.11719 83.8359 3.11719C84.9388 3.11719 85.873 3.39062 86.6387 3.9375C87.4681 4.55729 87.8828 5.41406 87.8828 6.50781V8.94141H89.6191C89.6191 8.70443 89.5736 8.54492 89.4824 8.46289C89.4004 8.37174 89.2637 8.32617 89.0723 8.32617H88.6074V4.67578C89.0814 4.17448 89.6647 3.79167 90.3574 3.52734C91.0592 3.25391 91.7884 3.11719 92.5449 3.11719C93.6478 3.11719 94.582 3.39062 95.3477 3.9375C96.1771 4.55729 96.5918 5.41406 96.5918 6.50781ZM104.877 14.5332C104.877 14.6882 104.95 14.793 105.096 14.8477C105.314 14.6016 105.624 14.3874 106.025 14.2051C106.426 14.0137 106.878 13.918 107.379 13.918C108.336 13.918 109.129 14.2005 109.758 14.7656C109.758 14.7656 109.79 14.793 109.854 14.8477C109.972 14.7839 110.031 14.6699 110.031 14.5059C110.031 14.2233 109.808 13.9544 109.361 13.6992C108.842 13.4167 108.176 13.2754 107.365 13.2754C107.146 13.2754 106.946 13.2936 106.764 13.3301V9.76172C106.764 9.36979 106.627 9.17383 106.354 9.17383C106.089 9.17383 105.957 9.37435 105.957 9.77539V13.5215C105.237 13.8132 104.877 14.1504 104.877 14.5332ZM105.998 21.0137C104.421 21.0137 102.99 20.7174 101.705 20.125C100.42 19.5234 99.3945 18.5983 98.6289 17.3496C97.7721 15.9368 97.3438 14.1777 97.3438 12.0723C97.3438 9.9668 97.7812 8.19401 98.6562 6.75391C99.4401 5.45964 100.502 4.49805 101.842 3.86914C103.191 3.24023 104.64 2.92578 106.189 2.92578C109.015 2.92578 111.23 3.75521 112.834 5.41406C114.447 7.0638 115.254 9.22396 115.254 11.8945C115.254 13.526 114.908 14.957 114.215 16.1875H116.197C116.525 17.1719 116.689 18.1016 116.689 18.9766C116.689 20.3073 116.32 21.3783 115.582 22.1895C114.844 23.0007 113.814 23.4062 112.492 23.4062C111.171 23.4062 110.072 22.9688 109.197 22.0938C108.331 21.2279 107.625 19.8561 107.078 17.9785H107.01C106.718 17.9785 106.572 18.1243 106.572 18.416C106.572 18.9629 106.878 19.8014 107.488 20.9316C107.014 20.9863 106.518 21.0137 105.998 21.0137Z" fill="#FCFBFB"/>
</svg>
