<svg width="445" height="480" viewBox="0 0 445 480" fill="none" xmlns="http://www.w3.org/2000/svg">
<rect width="445" height="480" rx="24" fill="#9489ED"/>
<g filter="url(#filter0_dii_550_110)">
<rect x="147.783" y="79" width="270.773" height="161" rx="80.5" fill="#FFF8F0"/>
</g>
<g filter="url(#filter1_dd_550_110)">
<path d="M153.751 183.487C156.881 178.066 164.705 178.066 167.835 183.487L174.877 195.684C178.006 201.105 174.094 207.881 167.835 207.881H153.751C147.491 207.881 143.579 201.105 146.709 195.684L153.751 183.487Z" fill="#FFF8F0"/>
</g>
<path d="M187.137 149.459H190.689L192.914 141.4L195.138 149.459H198.69L202.457 135.799H199.178L196.817 145.361L194.182 135.799H191.645L189.011 145.361L186.649 135.799H183.371L187.137 149.459ZM205.132 145.752H212.06C212.138 145.381 212.177 144.991 212.177 144.581C212.177 141.634 210.069 139.429 207.22 139.429C204.136 139.429 202.029 141.673 202.029 144.581C202.029 147.488 204.097 149.733 207.434 149.733C209.288 149.733 210.732 149.05 211.689 147.723L209.347 146.376C208.957 146.805 208.274 147.118 207.473 147.118C206.4 147.118 205.502 146.766 205.132 145.752ZM205.073 143.566C205.346 142.571 206.088 142.024 207.2 142.024C208.078 142.024 208.957 142.434 209.269 143.566H205.073ZM213.79 149.459H216.717V135.213H213.79V149.459ZM223.496 149.733C225.409 149.733 227.068 148.737 227.907 147.215L225.35 145.752C225.038 146.435 224.316 146.844 223.457 146.844C222.189 146.844 221.252 145.927 221.252 144.581C221.252 143.234 222.189 142.317 223.457 142.317C224.316 142.317 225.018 142.727 225.35 143.41L227.907 141.927C227.068 140.424 225.389 139.429 223.496 139.429C220.53 139.429 218.325 141.673 218.325 144.581C218.325 147.488 220.53 149.733 223.496 149.733ZM233.531 149.733C236.4 149.733 238.702 147.488 238.702 144.581C238.702 141.673 236.4 139.429 233.531 139.429C230.662 139.429 228.359 141.673 228.359 144.581C228.359 147.488 230.662 149.733 233.531 149.733ZM233.531 146.883C232.262 146.883 231.287 145.966 231.287 144.581C231.287 143.195 232.262 142.278 233.531 142.278C234.799 142.278 235.775 143.195 235.775 144.581C235.775 145.966 234.799 146.883 233.531 146.883ZM251.24 139.429C249.854 139.429 248.957 139.936 248.41 140.717C247.864 139.897 247.005 139.429 245.854 139.429C244.546 139.429 243.688 139.936 243.239 140.6V139.702H240.311V149.459H243.239V143.956C243.239 142.805 243.785 142.122 244.761 142.122C245.698 142.122 246.166 142.746 246.166 143.722V149.459H249.093V143.956C249.093 142.805 249.64 142.122 250.615 142.122C251.552 142.122 252.02 142.746 252.02 143.722V149.459H254.948V143.468C254.948 141.029 253.484 139.429 251.24 139.429ZM259.517 145.752H266.445C266.523 145.381 266.562 144.991 266.562 144.581C266.562 141.634 264.454 139.429 261.605 139.429C258.522 139.429 256.414 141.673 256.414 144.581C256.414 147.488 258.483 149.733 261.82 149.733C263.674 149.733 265.118 149.05 266.074 147.723L263.732 146.376C263.342 146.805 262.659 147.118 261.859 147.118C260.786 147.118 259.888 146.766 259.517 145.752ZM259.458 143.566C259.732 142.571 260.473 142.024 261.586 142.024C262.464 142.024 263.342 142.434 263.654 143.566H259.458ZM278.725 142.512V139.702H276.715V136.97L273.788 137.848V139.702H272.227V142.512H273.788V145.966C273.788 148.698 274.9 149.85 278.725 149.459V146.805C277.437 146.883 276.715 146.805 276.715 145.966V142.512H278.725ZM284.829 149.733C287.698 149.733 290.001 147.488 290.001 144.581C290.001 141.673 287.698 139.429 284.829 139.429C281.96 139.429 279.657 141.673 279.657 144.581C279.657 147.488 281.96 149.733 284.829 149.733ZM284.829 146.883C283.561 146.883 282.585 145.966 282.585 144.581C282.585 143.195 283.561 142.278 284.829 142.278C286.097 142.278 287.073 143.195 287.073 144.581C287.073 145.966 286.097 146.883 284.829 146.883ZM303.057 149.733C305.555 149.733 307.741 148.503 308.912 146.571L306.218 145.01C305.633 146.064 304.443 146.688 303.057 146.688C300.637 146.688 299.076 145.069 299.076 142.629C299.076 140.19 300.637 138.57 303.057 138.57C304.443 138.57 305.613 139.195 306.218 140.248L308.912 138.687C307.721 136.755 305.535 135.526 303.057 135.526C298.939 135.526 295.953 138.609 295.953 142.629C295.953 146.649 298.939 149.733 303.057 149.733ZM317.41 139.702V140.619C316.766 139.878 315.81 139.429 314.502 139.429C311.946 139.429 309.838 141.673 309.838 144.581C309.838 147.488 311.946 149.733 314.502 149.733C315.81 149.733 316.766 149.284 317.41 148.542V149.459H320.337V139.702H317.41ZM315.087 146.962C313.741 146.962 312.765 146.044 312.765 144.581C312.765 143.117 313.741 142.2 315.087 142.2C316.434 142.2 317.41 143.117 317.41 144.581C317.41 146.044 316.434 146.962 315.087 146.962ZM322.438 149.459H325.365V135.213H322.438V149.459ZM327.46 149.459H330.388V135.213H327.46V149.459ZM351.034 142.629C351.034 138.609 347.853 135.526 343.93 135.526C340.008 135.526 336.827 138.609 336.827 142.629C336.827 146.649 340.008 149.733 343.93 149.733C345.082 149.733 346.175 149.459 347.131 148.991L348.595 150.533L350.839 148.542L349.473 147.098C350.448 145.888 351.034 144.347 351.034 142.629ZM343.93 146.688C341.706 146.688 339.949 145.069 339.949 142.629C339.949 140.19 341.706 138.57 343.93 138.57C346.155 138.57 347.912 140.19 347.912 142.629C347.912 143.468 347.697 144.21 347.346 144.834L345.16 142.512L342.916 144.503L344.887 146.591C344.574 146.649 344.262 146.688 343.93 146.688ZM359.142 139.702V145.03C359.142 146.415 358.4 147.04 357.327 147.04C356.39 147.04 355.629 146.474 355.629 145.264V139.702H352.702V145.693C352.702 148.328 354.38 149.733 356.351 149.733C357.639 149.733 358.615 149.264 359.142 148.542V149.459H362.069V139.702H359.142ZM365.632 138.843C366.589 138.843 367.389 138.043 367.389 137.087C367.389 136.131 366.589 135.331 365.632 135.331C364.676 135.331 363.876 136.131 363.876 137.087C363.876 138.043 364.676 138.843 365.632 138.843ZM364.169 149.459H367.096V139.702H364.169V149.459ZM372.821 146.727L376.509 141.653V139.702H369.094V142.434H372.587L368.899 147.508V149.459H376.705V146.727H372.821ZM378.894 144.581H381.236L381.822 139.702V135.799H378.309V139.702L378.894 144.581ZM380.065 149.733C381.08 149.733 381.919 148.894 381.919 147.879C381.919 146.864 381.08 146.025 380.065 146.025C379.051 146.025 378.211 146.864 378.211 147.879C378.211 148.894 379.051 149.733 380.065 149.733ZM191.352 177.733C194.319 177.733 196.426 176.171 196.426 173.537C196.426 170.649 194.104 169.927 192.035 169.302C189.908 168.658 189.576 168.229 189.576 167.604C189.576 167.058 190.064 166.57 191.04 166.57C192.289 166.57 192.933 167.175 193.401 168.151L196.036 166.609C195.041 164.599 193.284 163.526 191.04 163.526C188.679 163.526 186.454 165.048 186.454 167.682C186.454 170.297 188.445 171.273 190.474 171.839C192.523 172.405 193.304 172.737 193.304 173.576C193.304 174.103 192.933 174.688 191.45 174.688C189.908 174.688 189.069 173.927 188.581 172.795L185.888 174.357C186.649 176.367 188.484 177.733 191.352 177.733ZM200.743 173.752H207.671C207.749 173.381 207.788 172.991 207.788 172.581C207.788 169.634 205.681 167.429 202.831 167.429C199.748 167.429 197.64 169.673 197.64 172.581C197.64 175.488 199.709 177.733 203.046 177.733C204.9 177.733 206.344 177.05 207.3 175.723L204.958 174.376C204.568 174.805 203.885 175.118 203.085 175.118C202.012 175.118 201.114 174.766 200.743 173.752ZM200.685 171.566C200.958 170.571 201.699 170.024 202.812 170.024C203.69 170.024 204.568 170.434 204.88 171.566H200.685ZM209.402 177.459H212.329V163.213H209.402V177.459ZM217.039 173.752H223.967C224.045 173.381 224.084 172.991 224.084 172.581C224.084 169.634 221.977 167.429 219.127 167.429C216.044 167.429 213.936 169.673 213.936 172.581C213.936 175.488 216.005 177.733 219.342 177.733C221.196 177.733 222.64 177.05 223.596 175.723L221.254 174.376C220.864 174.805 220.181 175.118 219.381 175.118C218.308 175.118 217.41 174.766 217.039 173.752ZM216.981 171.566C217.254 170.571 217.995 170.024 219.108 170.024C219.986 170.024 220.864 170.434 221.176 171.566H216.981ZM230.286 177.733C232.198 177.733 233.857 176.737 234.696 175.215L232.14 173.752C231.828 174.435 231.106 174.844 230.247 174.844C228.978 174.844 228.042 173.927 228.042 172.581C228.042 171.234 228.978 170.317 230.247 170.317C231.106 170.317 231.808 170.727 232.14 171.41L234.696 169.927C233.857 168.424 232.179 167.429 230.286 167.429C227.32 167.429 225.114 169.673 225.114 172.581C225.114 175.488 227.32 177.733 230.286 177.733ZM241.546 170.512V167.702H239.536V164.97L236.608 165.848V167.702H235.047V170.512H236.608V173.966C236.608 176.698 237.721 177.85 241.546 177.459V174.805C240.258 174.883 239.536 174.805 239.536 173.966V170.512H241.546ZM255.263 167.702V168.619C254.619 167.878 253.662 167.429 252.355 167.429C249.798 167.429 247.691 169.673 247.691 172.581C247.691 175.488 249.798 177.733 252.355 177.733C253.662 177.733 254.619 177.284 255.263 176.542V177.459H258.19V167.702H255.263ZM252.94 174.962C251.594 174.962 250.618 174.044 250.618 172.581C250.618 171.117 251.594 170.2 252.94 170.2C254.287 170.2 255.263 171.117 255.263 172.581C255.263 174.044 254.287 174.962 252.94 174.962ZM265.123 177.459H268.05V163.213H265.123V177.459ZM272.76 173.752H279.688C279.766 173.381 279.805 172.991 279.805 172.581C279.805 169.634 277.698 167.429 274.848 167.429C271.765 167.429 269.657 169.673 269.657 172.581C269.657 175.488 271.726 177.733 275.063 177.733C276.917 177.733 278.361 177.05 279.317 175.723L276.975 174.376C276.585 174.805 275.902 175.118 275.102 175.118C274.029 175.118 273.131 174.766 272.76 173.752ZM272.702 171.566C272.975 170.571 273.716 170.024 274.829 170.024C275.707 170.024 276.585 170.434 276.897 171.566H272.702ZM286.851 170.512V167.702H284.841V164.97L281.913 165.848V167.702H280.352V170.512H281.913V173.966C281.913 176.698 283.026 177.85 286.851 177.459V174.805C285.563 174.883 284.841 174.805 284.841 173.966V170.512H286.851ZM293.874 170.512V167.702H291.864V164.97L288.937 165.848V167.702H287.376V170.512H288.937V173.966C288.937 176.698 290.049 177.85 293.874 177.459V174.805C292.586 174.883 291.864 174.805 291.864 173.966V170.512H293.874ZM297.909 173.752H304.837C304.915 173.381 304.954 172.991 304.954 172.581C304.954 169.634 302.847 167.429 299.997 167.429C296.914 167.429 294.806 169.673 294.806 172.581C294.806 175.488 296.875 177.733 300.212 177.733C302.066 177.733 303.51 177.05 304.466 175.723L302.125 174.376C301.734 174.805 301.051 175.118 300.251 175.118C299.178 175.118 298.28 174.766 297.909 173.752ZM297.851 171.566C298.124 170.571 298.866 170.024 299.978 170.024C300.856 170.024 301.734 170.434 302.047 171.566H297.851ZM309.495 169.439V167.702H306.568V177.459H309.495V173.049C309.495 171.117 311.212 170.629 312.422 170.824V167.507C311.193 167.507 309.885 168.131 309.495 169.439ZM324.294 170.512V167.702H322.284V164.97L319.356 165.848V167.702H317.795V170.512H319.356V173.966C319.356 176.698 320.469 177.85 324.294 177.459V174.805C323.006 174.883 322.284 174.805 322.284 173.966V170.512H324.294ZM330.397 177.733C333.266 177.733 335.569 175.488 335.569 172.581C335.569 169.673 333.266 167.429 330.397 167.429C327.529 167.429 325.226 169.673 325.226 172.581C325.226 175.488 327.529 177.733 330.397 177.733ZM330.397 174.883C329.129 174.883 328.153 173.966 328.153 172.581C328.153 171.195 329.129 170.278 330.397 170.278C331.666 170.278 332.642 171.195 332.642 172.581C332.642 173.966 331.666 174.883 330.397 174.883ZM347.845 167.429C346.537 167.429 345.581 167.878 344.937 168.619V167.702H342.01V181.363H344.937V176.542C345.581 177.284 346.537 177.733 347.845 177.733C350.401 177.733 352.509 175.488 352.509 172.581C352.509 169.673 350.401 167.429 347.845 167.429ZM347.259 174.962C345.913 174.962 344.937 174.044 344.937 172.581C344.937 171.117 345.913 170.2 347.259 170.2C348.606 170.2 349.582 171.117 349.582 172.581C349.582 174.044 348.606 174.962 347.259 174.962ZM354.122 177.459H357.049V163.213H354.122V177.459ZM366.228 167.702V168.619C365.584 167.878 364.628 167.429 363.321 167.429C360.764 167.429 358.656 169.673 358.656 172.581C358.656 175.488 360.764 177.733 363.321 177.733C364.628 177.733 365.584 177.284 366.228 176.542V177.459H369.156V167.702H366.228ZM363.906 174.962C362.559 174.962 361.584 174.044 361.584 172.581C361.584 171.117 362.559 170.2 363.906 170.2C365.253 170.2 366.228 171.117 366.228 172.581C366.228 174.044 365.253 174.962 363.906 174.962ZM377.404 167.702L375.569 173.674L373.403 167.702H370.183L374.067 177.011C373.637 178.201 372.993 178.63 371.627 178.63V181.363C374.359 181.499 376.096 180.27 377.189 177.167L380.526 167.702H377.404Z" fill="#323234"/>
<g filter="url(#filter2_d_550_110)">
<path d="M25 178.609C25 150.766 47.5712 128.195 75.4141 128.195C103.257 128.195 125.828 150.766 125.828 178.609V203.003C125.828 213.332 117.455 221.705 107.126 221.705H43.702C33.3732 221.705 25 213.332 25 203.003V178.609Z" fill="#52AEE2"/>
<path d="M39.6365 158.281C39.6365 144.584 50.74 133.48 64.437 133.48H86.3915C100.088 133.48 111.192 144.584 111.192 158.281H39.6365Z" fill="url(#paint0_linear_550_110)" fill-opacity="0.2"/>
<path d="M28.6592 203.247C28.6592 211.869 35.649 218.859 44.2713 218.859H106.557C115.179 218.859 122.169 211.869 122.169 203.247C122.169 201.091 120.422 199.344 118.266 199.344H32.5622C30.4066 199.344 28.6592 201.091 28.6592 203.247Z" fill="url(#paint1_linear_550_110)" fill-opacity="0.2"/>
</g>
<g filter="url(#filter3_d_550_110)">
<path fill-rule="evenodd" clip-rule="evenodd" d="M61.0519 150.237C59.0599 145.186 54.1358 141.611 48.377 141.611C40.8549 141.611 34.7571 147.709 34.7571 155.231C34.7571 160.896 38.2148 165.752 43.1346 167.806C41.4045 171.757 40.449 176.093 40.449 180.642C40.449 199.054 56.1032 213.98 75.4136 213.98C94.7241 213.98 110.378 199.054 110.378 180.642C110.378 176.036 109.399 171.648 107.627 167.658C112.365 165.526 115.664 160.764 115.664 155.231C115.664 147.709 109.566 141.611 102.044 141.611C96.341 141.611 91.4569 145.116 89.4279 150.089C85.1375 148.298 80.3973 147.303 75.4136 147.303C70.295 147.303 65.4333 148.352 61.0519 150.237Z" fill="#BE7B4C"/>
<path d="M42.1351 159.679C39.1831 156.727 39.1831 151.941 42.1351 148.989C45.087 146.037 49.8731 146.037 52.8251 148.989L57.5421 153.706L52.6301 157.123C51.8659 157.655 51.1987 158.313 50.6576 159.071L46.852 164.396L42.1351 159.679Z" fill="#EBC49B"/>
<path d="M97.8339 148.989C100.785 146.037 105.571 146.037 108.523 148.989C111.474 151.94 111.474 156.726 108.523 159.677L103.178 165.022L100.384 160.264C99.7025 159.103 98.743 158.129 97.592 157.43L92.4895 154.333L97.8339 148.989Z" fill="#EBC49B"/>
<ellipse cx="75.0072" cy="191.619" rx="18.702" ry="13.4167" fill="#EBC49B"/>
<circle cx="60.1677" cy="178.406" r="3.45581" fill="#2D1614"/>
<ellipse cx="51.4265" cy="188.57" rx="4.06566" ry="4.26894" fill="#E39C89" fill-opacity="0.8"/>
<circle cx="98.7914" cy="188.57" r="4.26894" fill="#DC957D"/>
<ellipse cx="75.2105" cy="186.13" rx="5.08207" ry="3.45581" fill="#2D1614"/>
<path d="M68.3762 191.009C67.5476 191.009 66.8734 191.727 67.339 192.412C67.7483 193.015 68.4199 193.568 69.3171 194.028C70.8802 194.828 73.0001 195.278 75.2106 195.278C77.421 195.278 79.541 194.828 81.104 194.028C82.0013 193.568 82.6728 193.015 83.0821 192.412C83.5478 191.727 82.8735 191.009 82.0449 191.009C81.2164 191.009 80.4993 191.747 79.896 192.315C79.6538 192.543 79.3472 192.754 78.9824 192.941C77.982 193.453 76.6253 193.741 75.2106 193.741C73.7959 193.741 72.4391 193.453 71.4388 192.941C71.0739 192.754 70.7674 192.543 70.5252 192.315C69.9219 191.747 69.2048 191.009 68.3762 191.009Z" fill="#2D1614"/>
<circle cx="90.2534" cy="178.406" r="3.45581" fill="#2D1614"/>
<circle cx="72.5678" cy="185.114" r="1.2197" fill="white"/>
<rect x="74.1941" y="189.18" width="2.03283" height="4.87879" fill="#2D1614"/>
<path fill-rule="evenodd" clip-rule="evenodd" d="M74.8038 214.99C73.0904 216.335 69.9986 217.233 66.4692 217.233C61.0803 217.233 56.7117 215.139 56.7117 212.557C56.7117 209.975 61.0803 207.882 66.4692 207.882C69.9986 207.882 73.0904 208.779 74.8038 210.125C76.5173 208.779 79.609 207.882 83.1384 207.882C88.5274 207.882 92.896 209.975 92.896 212.557C92.896 215.139 88.5274 217.233 83.1384 217.233C79.609 217.233 76.5173 216.335 74.8038 214.99Z" fill="#63302C"/>
</g>
<path d="M30.2852 189.586L31.0155 191.834H33.3786L31.4668 193.223L32.197 195.47L30.2852 194.081L28.3735 195.47L29.1037 193.223L27.1919 191.834H29.555L30.2852 189.586Z" fill="white"/>
<path d="M35.5706 169.258L36.3009 171.505H38.664L36.7522 172.894L37.4824 175.142L35.5706 173.753L33.6589 175.142L34.3891 172.894L32.4773 171.505H34.8404L35.5706 169.258Z" fill="white"/>
<path d="M42.0758 206.255L42.806 208.503H45.1691L43.2573 209.892L43.9876 212.139L42.0758 210.75L40.164 212.139L40.8942 209.892L38.9824 208.503H41.3455L42.0758 206.255Z" fill="white"/>
<path d="M106.313 206.255L107.043 208.503H109.406L107.495 209.892L108.225 212.139L106.313 210.75L104.401 212.139L105.132 209.892L103.22 208.503H105.583L106.313 206.255Z" fill="white"/>
<path d="M115.664 169.258L116.394 171.505H118.757L116.846 172.894L117.576 175.142L115.664 173.753L113.752 175.142L114.483 172.894L112.571 171.505H114.934L115.664 169.258Z" fill="white"/>
<path d="M120.136 189.586L120.867 191.834H123.23L121.318 193.223L122.048 195.47L120.136 194.081L118.225 195.47L118.955 193.223L117.043 191.834H119.406L120.136 189.586Z" fill="white"/>
<path d="M90.4571 137.139L91.1874 139.387H93.5505L91.6387 140.776L92.3689 143.023L90.4571 141.634L88.5453 143.023L89.2756 140.776L87.3638 139.387H89.7269L90.4571 137.139Z" fill="white"/>
<path d="M65.2498 133.48L65.9801 135.728H68.3432L66.4314 137.117L67.1616 139.364L65.2498 137.975L63.3381 139.364L64.0683 137.117L62.1565 135.728H64.5196L65.2498 133.48Z" fill="white"/>
<rect y="288" width="445" height="112.074" fill="#363068"/>
<g filter="url(#filter4_d_550_110)">
<rect x="320.236" y="308" width="71.2824" height="71.2824" rx="24.7222" fill="#52AEE2"/>
<rect x="321.781" y="309.545" width="68.1921" height="68.1921" rx="23.1771" stroke="#010104" stroke-width="3.09028"/>
<rect x="321.781" y="309.545" width="68.1921" height="68.1921" rx="23.1771" stroke="url(#paint2_linear_550_110)" stroke-width="3.09028"/>
</g>
<g filter="url(#filter5_d_550_110)">
<rect x="141.413" y="308" width="71.2824" height="71.2824" rx="24.7222" fill="#52AEE2"/>
<rect x="142.958" y="309.545" width="68.1921" height="68.1921" rx="23.1771" stroke="#010104" stroke-width="3.09028"/>
<rect x="142.958" y="309.545" width="68.1921" height="68.1921" rx="23.1771" stroke="url(#paint3_linear_550_110)" stroke-width="3.09028"/>
</g>
<g filter="url(#filter6_d_550_110)">
<rect x="52" y="308" width="71.2824" height="71.2824" rx="24.7222" fill="#52AEE2"/>
<rect x="53.5451" y="309.545" width="68.1921" height="68.1921" rx="23.1771" stroke="#010104" stroke-width="3.09028"/>
<rect x="53.5451" y="309.545" width="68.1921" height="68.1921" rx="23.1771" stroke="url(#paint4_linear_550_110)" stroke-width="3.09028"/>
</g>
<g filter="url(#filter7_d_550_110)">
<rect x="230.824" y="308" width="71.2824" height="71.2824" rx="24.7222" fill="#52AEE2"/>
<rect x="232.369" y="309.545" width="68.1921" height="68.1921" rx="23.1771" stroke="#010104" stroke-width="3.09028"/>
<rect x="232.369" y="309.545" width="68.1921" height="68.1921" rx="23.1771" stroke="url(#paint5_linear_550_110)" stroke-width="3.09028"/>
</g>
<path d="M365.411 343.96C365.411 338.528 361.113 334.361 355.813 334.361C350.512 334.361 346.214 338.528 346.214 343.96C346.214 349.393 350.512 353.559 355.813 353.559C357.368 353.559 358.845 353.19 360.137 352.557L362.115 354.64L365.148 351.951L363.302 349.999C364.62 348.364 365.411 346.281 365.411 343.96ZM355.813 349.445C352.806 349.445 350.433 347.257 350.433 343.96C350.433 340.664 352.806 338.475 355.813 338.475C358.819 338.475 361.192 340.664 361.192 343.96C361.192 345.094 360.902 346.096 360.427 346.94L357.474 343.802L354.441 346.492L357.105 349.313C356.683 349.393 356.261 349.445 355.813 349.445Z" fill="#FFF8F0"/>
<path d="M176.523 353.559C180.32 353.559 183.168 351.318 183.168 347.257V334.731H178.949V347.257C178.949 348.391 178.395 349.445 176.549 349.445C175.125 349.445 174.519 348.892 173.939 347.863L170.273 349.973C171.486 352.32 173.596 353.559 176.523 353.559Z" fill="#FFF8F0"/>
<path d="M86.6571 348.717V345.447H93.2497V341.438H86.6571V338.379H93.909V334.318H82.4379V352.778H94.0408V348.717H86.6571Z" fill="#FFF8F0"/>
<path d="M266.667 353.147C270.728 353.147 273.787 350.773 273.787 346.818V334.318H269.567V346.449C269.567 347.846 268.908 349.033 266.667 349.033C264.425 349.033 263.766 347.846 263.766 346.449V334.318H259.547V346.818C259.547 350.773 262.606 353.147 266.667 353.147Z" fill="#FFF8F0"/>
<defs>
<filter id="filter0_dii_550_110" x="147.376" y="76.9672" width="271.586" height="166.489" filterUnits="userSpaceOnUse" color-interpolation-filters="sRGB">
<feFlood flood-opacity="0" result="BackgroundImageFix"/>
<feColorMatrix in="SourceAlpha" type="matrix" values="0 0 0 0 0 0 0 0 0 0 0 0 0 0 0 0 0 0 127 0" result="hardAlpha"/>
<feOffset dy="3.04924"/>
<feGaussianBlur stdDeviation="0.203283"/>
<feComposite in2="hardAlpha" operator="out"/>
<feColorMatrix type="matrix" values="0 0 0 0 0.137255 0 0 0 0 0.117647 0 0 0 0 0.290196 0 0 0 1 0"/>
<feBlend mode="normal" in2="BackgroundImageFix" result="effect1_dropShadow_550_110"/>
<feBlend mode="normal" in="SourceGraphic" in2="effect1_dropShadow_550_110" result="shape"/>
<feColorMatrix in="SourceAlpha" type="matrix" values="0 0 0 0 0 0 0 0 0 0 0 0 0 0 0 0 0 0 127 0" result="hardAlpha"/>
<feOffset dy="8.13131"/>
<feGaussianBlur stdDeviation="1.01641"/>
<feComposite in2="hardAlpha" operator="arithmetic" k2="-1" k3="1"/>
<feColorMatrix type="matrix" values="0 0 0 0 0.137255 0 0 0 0 0.117647 0 0 0 0 0.290196 0 0 0 0.1 0"/>
<feBlend mode="normal" in2="shape" result="effect2_innerShadow_550_110"/>
<feColorMatrix in="SourceAlpha" type="matrix" values="0 0 0 0 0 0 0 0 0 0 0 0 0 0 0 0 0 0 127 0" result="hardAlpha"/>
<feOffset dy="-16.2626"/>
<feGaussianBlur stdDeviation="1.01641"/>
<feComposite in2="hardAlpha" operator="arithmetic" k2="-1" k3="1"/>
<feColorMatrix type="matrix" values="0 0 0 0 0.137255 0 0 0 0 0.117647 0 0 0 0 0.290196 0 0 0 0.1 0"/>
<feBlend mode="normal" in2="effect2_innerShadow_550_110" result="effect3_innerShadow_550_110"/>
</filter>
<filter id="filter1_dd_550_110" x="142.965" y="178.405" width="33.4201" height="32.9318" filterUnits="userSpaceOnUse" color-interpolation-filters="sRGB">
<feFlood flood-opacity="0" result="BackgroundImageFix"/>
<feColorMatrix in="SourceAlpha" type="matrix" values="0 0 0 0 0 0 0 0 0 0 0 0 0 0 0 0 0 0 127 0" result="hardAlpha"/>
<feOffset dy="3.04924"/>
<feGaussianBlur stdDeviation="0.203283"/>
<feComposite in2="hardAlpha" operator="out"/>
<feColorMatrix type="matrix" values="0 0 0 0 0.180392 0 0 0 0 0.180392 0 0 0 0 0.188235 0 0 0 1 0"/>
<feBlend mode="normal" in2="BackgroundImageFix" result="effect1_dropShadow_550_110"/>
<feColorMatrix in="SourceAlpha" type="matrix" values="0 0 0 0 0 0 0 0 0 0 0 0 0 0 0 0 0 0 127 0" result="hardAlpha"/>
<feOffset dx="-2.23611" dy="-0.609848"/>
<feGaussianBlur stdDeviation="0.203283"/>
<feComposite in2="hardAlpha" operator="out"/>
<feColorMatrix type="matrix" values="0 0 0 0 0.180392 0 0 0 0 0.180392 0 0 0 0 0.188235 0 0 0 1 0"/>
<feBlend mode="normal" in2="effect1_dropShadow_550_110" result="effect2_dropShadow_550_110"/>
<feBlend mode="normal" in="SourceGraphic" in2="effect2_dropShadow_550_110" result="shape"/>
</filter>
<filter id="filter2_d_550_110" x="24.5934" y="128.195" width="101.642" height="96.9659" filterUnits="userSpaceOnUse" color-interpolation-filters="sRGB">
<feFlood flood-opacity="0" result="BackgroundImageFix"/>
<feColorMatrix in="SourceAlpha" type="matrix" values="0 0 0 0 0 0 0 0 0 0 0 0 0 0 0 0 0 0 127 0" result="hardAlpha"/>
<feOffset dy="3.04924"/>
<feGaussianBlur stdDeviation="0.203283"/>
<feComposite in2="hardAlpha" operator="out"/>
<feColorMatrix type="matrix" values="0 0 0 0 0.106771 0 0 0 0 0.256843 0 0 0 0 0.341667 0 0 0 1 0"/>
<feBlend mode="normal" in2="BackgroundImageFix" result="effect1_dropShadow_550_110"/>
<feBlend mode="normal" in="SourceGraphic" in2="effect1_dropShadow_550_110" result="shape"/>
</filter>
<filter id="filter3_d_550_110" x="34.3505" y="141.611" width="81.7196" height="77.0441" filterUnits="userSpaceOnUse" color-interpolation-filters="sRGB">
<feFlood flood-opacity="0" result="BackgroundImageFix"/>
<feColorMatrix in="SourceAlpha" type="matrix" values="0 0 0 0 0 0 0 0 0 0 0 0 0 0 0 0 0 0 127 0" result="hardAlpha"/>
<feOffset dy="1.01641"/>
<feGaussianBlur stdDeviation="0.203283"/>
<feComposite in2="hardAlpha" operator="out"/>
<feColorMatrix type="matrix" values="0 0 0 0 0.745098 0 0 0 0 0.482353 0 0 0 0 0.298039 0 0 0 0.6 0"/>
<feBlend mode="normal" in2="BackgroundImageFix" result="effect1_dropShadow_550_110"/>
<feBlend mode="normal" in="SourceGraphic" in2="effect1_dropShadow_550_110" result="shape"/>
</filter>
<filter id="filter4_d_550_110" x="319.824" y="308" width="72.1063" height="75.8148" filterUnits="userSpaceOnUse" color-interpolation-filters="sRGB">
<feFlood flood-opacity="0" result="BackgroundImageFix"/>
<feColorMatrix in="SourceAlpha" type="matrix" values="0 0 0 0 0 0 0 0 0 0 0 0 0 0 0 0 0 0 127 0" result="hardAlpha"/>
<feOffset dy="4.12037"/>
<feGaussianBlur stdDeviation="0.206019"/>
<feComposite in2="hardAlpha" operator="out"/>
<feColorMatrix type="matrix" values="0 0 0 0 0.120833 0 0 0 0 0.120833 0 0 0 0 0.120833 0 0 0 1 0"/>
<feBlend mode="normal" in2="BackgroundImageFix" result="effect1_dropShadow_550_110"/>
<feBlend mode="normal" in="SourceGraphic" in2="effect1_dropShadow_550_110" result="shape"/>
</filter>
<filter id="filter5_d_550_110" x="141.001" y="308" width="72.1065" height="75.8148" filterUnits="userSpaceOnUse" color-interpolation-filters="sRGB">
<feFlood flood-opacity="0" result="BackgroundImageFix"/>
<feColorMatrix in="SourceAlpha" type="matrix" values="0 0 0 0 0 0 0 0 0 0 0 0 0 0 0 0 0 0 127 0" result="hardAlpha"/>
<feOffset dy="4.12037"/>
<feGaussianBlur stdDeviation="0.206019"/>
<feComposite in2="hardAlpha" operator="out"/>
<feColorMatrix type="matrix" values="0 0 0 0 0.120833 0 0 0 0 0.120833 0 0 0 0 0.120833 0 0 0 1 0"/>
<feBlend mode="normal" in2="BackgroundImageFix" result="effect1_dropShadow_550_110"/>
<feBlend mode="normal" in="SourceGraphic" in2="effect1_dropShadow_550_110" result="shape"/>
</filter>
<filter id="filter6_d_550_110" x="51.588" y="308" width="72.1065" height="75.8148" filterUnits="userSpaceOnUse" color-interpolation-filters="sRGB">
<feFlood flood-opacity="0" result="BackgroundImageFix"/>
<feColorMatrix in="SourceAlpha" type="matrix" values="0 0 0 0 0 0 0 0 0 0 0 0 0 0 0 0 0 0 127 0" result="hardAlpha"/>
<feOffset dy="4.12037"/>
<feGaussianBlur stdDeviation="0.206019"/>
<feComposite in2="hardAlpha" operator="out"/>
<feColorMatrix type="matrix" values="0 0 0 0 0.120833 0 0 0 0 0.120833 0 0 0 0 0.120833 0 0 0 1 0"/>
<feBlend mode="normal" in2="BackgroundImageFix" result="effect1_dropShadow_550_110"/>
<feBlend mode="normal" in="SourceGraphic" in2="effect1_dropShadow_550_110" result="shape"/>
</filter>
<filter id="filter7_d_550_110" x="230.412" y="308" width="72.1065" height="75.8148" filterUnits="userSpaceOnUse" color-interpolation-filters="sRGB">
<feFlood flood-opacity="0" result="BackgroundImageFix"/>
<feColorMatrix in="SourceAlpha" type="matrix" values="0 0 0 0 0 0 0 0 0 0 0 0 0 0 0 0 0 0 127 0" result="hardAlpha"/>
<feOffset dy="4.12037"/>
<feGaussianBlur stdDeviation="0.206019"/>
<feComposite in2="hardAlpha" operator="out"/>
<feColorMatrix type="matrix" values="0 0 0 0 0.120833 0 0 0 0 0.120833 0 0 0 0 0.120833 0 0 0 1 0"/>
<feBlend mode="normal" in2="BackgroundImageFix" result="effect1_dropShadow_550_110"/>
<feBlend mode="normal" in="SourceGraphic" in2="effect1_dropShadow_550_110" result="shape"/>
</filter>
<linearGradient id="paint0_linear_550_110" x1="75.4143" y1="133.48" x2="75.4143" y2="158.281" gradientUnits="userSpaceOnUse">
<stop stop-color="white"/>
<stop offset="1" stop-color="#52AEE2" stop-opacity="0"/>
</linearGradient>
<linearGradient id="paint1_linear_550_110" x1="75.4142" y1="218.859" x2="75.4142" y2="199.344" gradientUnits="userSpaceOnUse">
<stop stop-color="white"/>
<stop offset="1" stop-color="#52AEE2" stop-opacity="0"/>
</linearGradient>
<linearGradient id="paint2_linear_550_110" x1="355.878" y1="308" x2="355.878" y2="379.282" gradientUnits="userSpaceOnUse">
<stop stop-color="white"/>
<stop offset="1" stop-color="white" stop-opacity="0"/>
</linearGradient>
<linearGradient id="paint3_linear_550_110" x1="177.054" y1="308" x2="177.054" y2="379.282" gradientUnits="userSpaceOnUse">
<stop stop-color="white"/>
<stop offset="1" stop-color="white" stop-opacity="0"/>
</linearGradient>
<linearGradient id="paint4_linear_550_110" x1="87.6412" y1="308" x2="87.6412" y2="379.282" gradientUnits="userSpaceOnUse">
<stop stop-color="white"/>
<stop offset="1" stop-color="white" stop-opacity="0"/>
</linearGradient>
<linearGradient id="paint5_linear_550_110" x1="266.465" y1="308" x2="266.465" y2="379.282" gradientUnits="userSpaceOnUse">
<stop stop-color="white"/>
<stop offset="1" stop-color="white" stop-opacity="0"/>
</linearGradient>
</defs>
</svg>
