<svg width="262" height="252" viewBox="0 0 262 252" fill="none" xmlns="http://www.w3.org/2000/svg">
<g clip-path="url(#clip0_550_50)">
<path fill-rule="evenodd" clip-rule="evenodd" d="M208.427 187.312C225.196 190.118 242.827 183.151 252.881 168.093C266.55 147.619 261.033 119.941 240.559 106.272C225.038 95.9092 205.376 96.5732 190.816 106.422C182.394 93.7485 171.299 82.4289 157.734 73.3726C143.802 64.0711 128.664 58.091 113.314 55.2583C117.071 37.8905 110.163 19.2148 94.4887 8.75001C74.0149 -4.91899 46.3367 0.597336 32.6677 21.0711C22.3747 36.4882 22.9605 55.9904 32.6198 70.5199C20.7315 78.1294 10.2514 88.1952 1.98518 100.576C-31.4733 150.691 -15.9888 219.764 36.5706 254.854C89.1301 289.945 158.861 277.766 192.32 227.651C200.689 215.115 205.996 201.392 208.427 187.312Z" fill="#BE7B4C"/>
<path d="M44.6651 46.5841C41.9947 33.1851 50.6919 20.1583 64.0908 17.4878C77.4898 14.8174 90.5167 23.5146 93.1871 36.9136L97.4543 58.3239L77.8759 58.6978C74.8301 58.756 71.817 59.3367 68.9677 60.4146L48.9322 67.9944L44.6651 46.5841Z" fill="#EBC49B"/>
<path d="M215.694 118.701C229.092 116.031 242.117 124.727 244.787 138.125C247.457 151.522 238.761 164.547 225.364 167.217L201.106 172.052L202.147 154.025C202.401 149.626 201.559 145.232 199.696 141.238L191.436 123.536L215.694 118.701Z" fill="#EBC49B"/>
<ellipse cx="76.0979" cy="193.253" rx="61.2057" ry="43.9084" transform="rotate(33.7285 76.0979 193.253)" fill="#EBC49B"/>
<circle cx="59.7178" cy="130.322" r="11.3098" transform="rotate(33.7285 59.7178 130.322)" fill="#2D1614"/>
<ellipse cx="17.4557" cy="142.103" rx="13.3056" ry="13.9709" transform="rotate(33.7285 17.4557 142.103)" fill="#E39C89" fill-opacity="0.8"/>
<circle cx="146.374" cy="228.173" r="13.9709" transform="rotate(33.7285 146.374 228.173)" fill="#DC957D"/>
<ellipse cx="86.6246" cy="178.683" rx="16.632" ry="11.3098" transform="rotate(33.7285 86.6246 178.683)" fill="#2D1614"/>
<path d="M59.1566 179.543C56.9014 178.038 53.7618 178.766 53.7839 181.477C53.8033 183.861 54.6252 186.588 56.2323 189.469C59.0318 194.488 63.9845 199.565 70.001 203.582C76.0175 207.599 82.6049 210.227 88.314 210.888C91.5913 211.268 94.425 210.981 96.6337 210.085C99.1465 209.066 98.6155 205.887 96.3604 204.382C94.1052 202.876 90.8124 203.582 88.1383 204.031C87.0647 204.211 85.8466 204.229 84.514 204.075C80.8602 203.652 76.6443 201.97 72.7937 199.399C68.9432 196.828 65.7734 193.579 63.9817 190.367C63.3282 189.195 62.8776 188.063 62.6327 187.002C62.0226 184.36 61.4118 181.049 59.1566 179.543Z" fill="#2D1614"/>
<circle cx="141.606" cy="184.994" r="11.3098" transform="rotate(33.7285 141.606 184.994)" fill="#2D1614"/>
<circle cx="81.2779" cy="171.115" r="3.99168" transform="rotate(33.7285 81.2779 171.115)" fill="white"/>
<rect x="78.3171" y="185.136" width="6.65279" height="15.9667" transform="rotate(33.7285 78.3171 185.136)" fill="#2D1614"/>
<mask id="path-13-inside-1_550_50" fill="white">
<path fill-rule="evenodd" clip-rule="evenodd" d="M33.0754 256.495C25.9675 257.042 15.9208 253.868 6.31462 247.454C-8.35314 237.661 -16.4398 224.025 -11.7475 216.997C-7.05512 209.969 8.63934 212.21 23.3071 222.002C32.9134 228.416 39.6968 236.478 41.9164 243.253C49.0244 242.705 59.071 245.88 68.6772 252.293C83.345 262.086 91.4316 275.722 86.7393 282.75C82.047 289.779 66.3525 287.538 51.6847 277.745C42.0785 271.331 35.295 263.269 33.0754 256.495Z"/>
</mask>
<path fill-rule="evenodd" clip-rule="evenodd" d="M33.0754 256.495C25.9675 257.042 15.9208 253.868 6.31462 247.454C-8.35314 237.661 -16.4398 224.025 -11.7475 216.997C-7.05512 209.969 8.63934 212.21 23.3071 222.002C32.9134 228.416 39.6968 236.478 41.9164 243.253C49.0244 242.705 59.071 245.88 68.6772 252.293C83.345 262.086 91.4316 275.722 86.7393 282.75C82.047 289.779 66.3525 287.538 51.6847 277.745C42.0785 271.331 35.295 263.269 33.0754 256.495Z" fill="#63302C"/>
<path d="M33.0754 256.495L37.5009 255.045L36.3627 251.571L32.7179 251.852L33.0754 256.495ZM41.9164 243.253L37.4909 244.703L38.6291 248.176L42.2739 247.896L41.9164 243.253ZM32.7179 251.852C27.0325 252.289 18.0245 249.673 8.90043 243.581L3.7288 251.327C13.8171 258.063 24.9025 261.795 33.4329 261.138L32.7179 251.852ZM8.90043 243.581C2.01521 238.984 -3.12985 233.604 -5.97089 228.813C-9.00316 223.7 -8.65537 220.753 -7.87437 219.583L-15.6206 214.411C-19.5319 220.27 -17.487 227.654 -13.982 233.564C-10.2859 239.797 -4.05374 246.131 3.7288 251.327L8.90043 243.581ZM-7.87437 219.583C-7.09338 218.413 -4.50421 216.962 1.38075 217.802C6.8946 218.589 13.8361 221.279 20.7213 225.875L25.8929 218.129C18.1104 212.933 9.87073 209.606 2.69733 208.582C-4.10497 207.61 -11.7092 208.553 -15.6206 214.411L-7.87437 219.583ZM20.7213 225.875C29.8454 231.967 35.7155 239.284 37.4909 244.703L46.3419 241.803C43.6781 233.672 35.9813 224.865 25.8929 218.129L20.7213 225.875ZM42.2739 247.896C47.9594 247.458 56.9673 250.075 66.0914 256.166L71.263 248.42C61.1747 241.685 50.0894 237.953 41.559 238.609L42.2739 247.896ZM66.0914 256.166C72.9766 260.763 78.1217 266.143 80.9627 270.934C83.995 276.047 83.6472 278.995 82.8662 280.165L90.6124 285.336C94.5237 279.478 92.4788 272.093 88.9739 266.183C85.2777 259.95 79.0456 253.616 71.263 248.42L66.0914 256.166ZM82.8662 280.165C82.0852 281.334 79.496 282.786 73.6111 281.945C68.0972 281.158 61.1558 278.469 54.2706 273.872L49.0989 281.618C56.8815 286.814 65.1211 290.141 72.2945 291.166C79.0968 292.137 86.701 291.195 90.6124 285.336L82.8662 280.165ZM54.2706 273.872C45.1464 267.78 39.2763 260.464 37.5009 255.045L28.6499 257.945C31.3137 266.075 39.0105 274.883 49.0989 281.618L54.2706 273.872Z" fill="#2D1614" mask="url(#path-13-inside-1_550_50)"/>
</g>
<defs>
<clipPath id="clip0_550_50">
<rect width="262" height="252" fill="white"/>
</clipPath>
</defs>
</svg>
