<svg width="262" height="252" viewBox="0 0 262 252" fill="none" xmlns="http://www.w3.org/2000/svg">
<g clip-path="url(#clip0_550_70)">
<mask id="path-1-inside-1_550_70" fill="white">
<path fill-rule="evenodd" clip-rule="evenodd" d="M72.1397 107.981C57.3887 97.749 37.2867 96.9611 21.4513 107.534C0.767514 121.344 -4.80477 149.307 9.00525 169.991C19.4048 185.566 37.8299 192.573 55.1287 189.186C57.6249 203.226 62.9584 216.903 71.3098 229.411C105.113 280.04 175.562 292.343 228.66 256.891C281.759 221.438 297.401 151.655 263.597 101.026C255.141 88.3615 244.392 78.0949 232.195 70.3742C241.308 55.8134 241.635 36.6637 231.478 21.4514C217.668 0.767639 189.705 -4.80464 169.022 9.00537C153.341 19.475 146.345 38.0789 149.896 55.4786C134.809 58.4287 119.95 64.3976 106.246 73.5471C92.1711 82.9449 80.7278 94.7549 72.1397 107.981Z"/>
</mask>
<path fill-rule="evenodd" clip-rule="evenodd" d="M72.1397 107.981C57.3887 97.749 37.2867 96.9611 21.4513 107.534C0.767514 121.344 -4.80477 149.307 9.00525 169.991C19.4048 185.566 37.8299 192.573 55.1287 189.186C57.6249 203.226 62.9584 216.903 71.3098 229.411C105.113 280.04 175.562 292.343 228.66 256.891C281.759 221.438 297.401 151.655 263.597 101.026C255.141 88.3615 244.392 78.0949 232.195 70.3742C241.308 55.8134 241.635 36.6637 231.478 21.4514C217.668 0.767639 189.705 -4.80464 169.022 9.00537C153.341 19.475 146.345 38.0789 149.896 55.4786C134.809 58.4287 119.95 64.3976 106.246 73.5471C92.1711 82.9449 80.7278 94.7549 72.1397 107.981Z" fill="white"/>
<path d="M72.1397 107.981L71.6267 108.721L72.3892 109.249L72.8945 108.471L72.1397 107.981ZM55.1287 189.186L56.0148 189.029L55.8545 188.127L54.9558 188.303L55.1287 189.186ZM232.195 70.3742L231.432 69.8968L230.957 70.6558L231.714 71.1347L232.195 70.3742ZM149.896 55.4786L150.069 56.3618L150.959 56.1877L150.778 55.2986L149.896 55.4786ZM72.6527 107.241C57.6082 96.8059 37.1047 96.0006 20.9515 106.786L21.951 108.283C37.4688 97.9217 57.1691 98.692 71.6267 108.721L72.6527 107.241ZM20.9515 106.786C-0.145622 120.872 -5.82927 149.393 8.25675 170.49L9.75374 169.491C-3.78027 149.22 1.68065 121.817 21.951 108.283L20.9515 106.786ZM8.25675 170.49C18.8649 186.379 37.659 193.523 55.3017 190.069L54.9558 188.303C38.0009 191.622 19.9446 184.754 9.75374 169.491L8.25675 170.49ZM72.0582 228.912C63.7776 216.51 58.4899 202.949 56.0148 189.029L54.2426 189.344C56.76 203.503 62.1391 217.297 70.5613 229.911L72.0582 228.912ZM228.16 256.142C175.441 291.342 105.564 279.094 72.0582 228.912L70.5613 229.911C104.663 280.987 175.682 293.345 229.16 257.639L228.16 256.142ZM262.848 101.526C296.354 151.708 280.88 220.943 228.16 256.142L229.16 257.639C282.638 221.933 298.447 151.602 264.345 100.527L262.848 101.526ZM231.714 71.1347C243.807 78.7899 254.464 88.9686 262.848 101.526L264.345 100.527C255.818 87.7545 244.977 77.4 232.676 69.6138L231.714 71.1347ZM232.958 70.8517C242.252 56.0017 242.587 36.4692 232.227 20.9517L230.73 21.9512C240.683 36.8583 240.364 55.6251 231.432 69.8968L232.958 70.8517ZM232.227 20.9517C218.141 -0.145494 189.619 -5.82914 168.522 8.25688L169.521 9.75387C189.792 -3.78014 217.196 1.68077 230.73 21.9512L232.227 20.9517ZM168.522 8.25688C152.527 18.9365 145.393 37.9128 149.014 55.6585L150.778 55.2986C147.298 38.2449 154.155 20.0135 169.521 9.75387L168.522 8.25688ZM106.746 74.2956C120.35 65.2129 135.098 59.2894 150.069 56.3618L149.723 54.5953C134.521 57.5681 119.551 63.5822 105.747 72.7986L106.746 74.2956ZM72.8945 108.471C81.4168 95.3464 92.7738 83.6247 106.746 74.2956L105.747 72.7986C91.5685 82.2651 80.0388 94.1634 71.3849 107.491L72.8945 108.471Z" fill="#996642" mask="url(#path-1-inside-1_550_70)"/>
<path d="M34.8122 168.147C22.7382 165.741 14.9007 154.003 17.3068 141.929L18.3623 136.632C20.7684 124.558 32.5068 116.72 44.5809 119.127L68.8598 123.965L61.3356 143.117C60.4025 145.493 59.8842 148.01 59.8032 150.561L59.0911 172.986L34.8122 168.147Z" fill="#EBC49B"/>
<path d="M171.518 34.3731C173.925 22.2991 185.663 14.4616 197.737 16.8677L203.028 17.922C215.102 20.3281 222.939 32.0665 220.533 44.1406L215.122 71.2934L197.662 62.8347C194.34 61.2252 190.67 60.466 186.982 60.6252L166.108 61.5259L171.518 34.3731Z" fill="#EBC49B"/>
<ellipse cx="186.489" cy="196.15" rx="61.8347" ry="44.3597" transform="rotate(-33.73 186.489 196.15)" fill="#EBC49B"/>
<path d="M130.928 180.716C134.432 185.964 122.568 177.408 117.32 180.912C112.072 184.416 115.427 198.653 111.923 193.405C108.419 188.157 109.833 181.062 115.081 177.558C120.329 174.054 127.424 175.468 130.928 180.716Z" fill="#00030A"/>
<path d="M213.841 125.499C217.345 130.747 205.481 122.19 200.233 125.694C194.985 129.198 198.34 143.436 194.836 138.188C191.332 132.94 192.746 125.845 197.994 122.341C203.242 118.837 210.337 120.25 213.841 125.499Z" fill="#00030A"/>
<ellipse cx="116.052" cy="231.056" rx="13.4423" ry="14.1144" transform="rotate(-33.73 116.052 231.056)" fill="#BE7B4C" fill-opacity="0.3"/>
<circle cx="246.292" cy="144.098" r="14.1144" transform="rotate(-33.73 246.292 144.098)" fill="#BE7B4C" fill-opacity="0.3"/>
<ellipse cx="176.972" cy="180.685" rx="16.8029" ry="11.426" transform="rotate(-33.73 176.972 180.685)" fill="#00030A"/>
<path d="M169.377 210C167.099 211.521 166.562 214.732 169.101 215.762C171.332 216.667 174.195 216.956 177.506 216.572C183.274 215.904 189.929 213.249 196.007 209.191C202.085 205.132 207.089 200.004 209.917 194.933C211.54 192.022 212.371 189.267 212.39 186.859C212.413 184.119 209.241 183.384 206.962 184.905C204.684 186.426 204.067 189.772 203.451 192.441C203.203 193.513 202.748 194.656 202.088 195.84C200.278 199.085 197.076 202.367 193.186 204.965C189.296 207.562 185.036 209.261 181.345 209.689C179.999 209.845 178.768 209.827 177.683 209.645C174.982 209.191 171.655 208.478 169.377 210Z" fill="#00030A"/>
<circle cx="167.837" cy="182.742" r="4.0327" transform="rotate(-33.73 167.837 182.742)" fill="white"/>
<rect x="179.772" y="190.936" width="6.72116" height="20.1635" transform="rotate(-33.73 179.772 190.936)" fill="#00030A"/>
<mask id="path-14-inside-2_550_70" fill="white">
<path fill-rule="evenodd" clip-rule="evenodd" d="M228.837 260.786C226.595 267.63 219.742 275.776 210.037 282.255C195.218 292.149 179.363 294.414 174.622 287.313C169.881 280.213 178.051 266.436 192.869 256.543C202.574 250.063 212.724 246.855 219.905 247.408C222.147 240.564 229.001 232.419 238.706 225.939C253.524 216.045 269.38 213.781 274.12 220.881C278.861 227.981 270.692 241.758 255.873 251.652C246.168 258.131 236.018 261.339 228.837 260.786Z"/>
</mask>
<path fill-rule="evenodd" clip-rule="evenodd" d="M228.837 260.786C226.595 267.63 219.742 275.776 210.037 282.255C195.218 292.149 179.363 294.414 174.622 287.313C169.881 280.213 178.051 266.436 192.869 256.543C202.574 250.063 212.724 246.855 219.905 247.408C222.147 240.564 229.001 232.419 238.706 225.939C253.524 216.045 269.38 213.781 274.12 220.881C278.861 227.981 270.692 241.758 255.873 251.652C246.168 258.131 236.018 261.339 228.837 260.786Z" fill="#EBC49B"/>
<path d="M228.837 260.786L229.136 256.896L226.083 256.661L225.13 259.571L228.837 260.786ZM219.905 247.408L219.606 251.298L222.659 251.533L223.613 248.623L219.905 247.408ZM225.13 259.571C223.26 265.28 217.172 272.801 207.87 279.011L212.203 285.5C222.312 278.75 229.93 269.98 232.544 262L225.13 259.571ZM207.87 279.011C200.837 283.707 193.712 286.479 187.999 287.295C181.974 288.156 178.926 286.733 177.866 285.147L171.378 289.479C175.059 294.993 182.309 295.989 189.102 295.019C196.206 294.004 204.418 290.698 212.203 285.5L207.87 279.011ZM177.866 285.147C176.807 283.561 176.662 280.2 179.766 274.965C182.71 270.001 188.002 264.483 195.035 259.787L190.703 253.298C182.918 258.496 176.716 264.813 173.055 270.986C169.555 276.888 167.696 283.965 171.378 289.479L177.866 285.147ZM195.035 259.787C204.336 253.577 213.617 250.837 219.606 251.298L220.205 243.519C211.832 242.874 200.812 246.549 190.703 253.298L195.035 259.787ZM223.613 248.623C225.483 242.914 231.571 235.393 240.872 229.183L236.54 222.694C226.431 229.444 218.812 238.214 216.198 246.194L223.613 248.623ZM240.872 229.183C247.905 224.487 255.03 221.715 260.744 220.899C266.768 220.038 269.817 221.461 270.876 223.047L277.365 218.715C273.683 213.201 266.434 212.205 259.641 213.175C252.537 214.19 244.324 217.497 236.54 222.694L240.872 229.183ZM270.876 223.047C271.935 224.634 272.08 227.994 268.976 233.229C266.032 238.193 260.741 243.711 253.707 248.407L258.04 254.896C265.825 249.698 272.027 243.381 275.687 237.209C279.187 231.306 281.046 224.229 277.365 218.715L270.876 223.047ZM253.707 248.407C244.406 254.617 235.126 257.357 229.136 256.896L228.537 264.675C236.91 265.32 247.931 261.646 258.04 254.896L253.707 248.407Z" fill="white" mask="url(#path-14-inside-2_550_70)"/>
</g>
<defs>
<clipPath id="clip0_550_70">
<rect width="262" height="252" fill="white"/>
</clipPath>
</defs>
</svg>
